<?xml version="1.0" standalone="no"?>
<!DOCTYPE svg PUBLIC "-//W3C//DTD SVG 20010904//EN"
 "http://www.w3.org/TR/2001/REC-SVG-20010904/DTD/svg10.dtd">
<svg version="1.0" xmlns="http://www.w3.org/2000/svg"
 width="360.000000pt" height="360.000000pt" viewBox="0 0 360.000000 360.000000"
 preserveAspectRatio="xMidYMid meet">
<metadata>
Created by potrace 1.11, written by Peter Selinger 2001-2013
</metadata>
<g transform="translate(0.000000,360.000000) scale(0.100000,-0.100000)"
fill="#000000" stroke="none">
<path d="M391 3589 c-79 -15 -187 -74 -247 -133 -62 -62 -118 -168 -134 -255
-14 -74 -14 -2738 0 -2812 28 -150 130 -281 267 -347 l78 -37 1450 0 1450 0
78 37 c103 50 175 122 225 225 l37 78 0 1450 0 1450 -37 78 c-66 137 -197 239
-347 267 -67 13 -2756 12 -2820 -1z"/>
</g>
</svg>
